<svg width="113" height="113" viewBox="0 0 113 113" fill="none" xmlns="http://www.w3.org/2000/svg">
<rect width="113" height="113" rx="20" fill="#00D672"/>
<path d="M111.128 44.9168C111.862 48.5381 112.247 52.2859 112.247 56.1237C112.247 87.12 87.12 112.247 56.1237 112.247C41.2722 112.247 27.7682 106.479 17.7298 97.0599C20.7098 94.8426 23.3948 92.3583 25.8013 89.6932C35.2061 79.2778 40.4248 66.0628 42.8908 54.5916C44.933 55.2978 46.9931 55.9417 49.0671 56.5154C61.6857 60.0062 75.1888 60.9997 88.3338 57.2349C96.3792 54.9306 104.051 50.9107 111.128 44.9168ZM4.64995 33.7205C11.7568 39.0274 19.799 44.1744 28.4032 48.4635C26.6611 58.5674 22.3182 70.5795 14.3753 79.3759C12.4707 81.4852 10.3651 83.4052 8.036 85.078C2.93507 76.6245 6.94578e-06 66.7169 0 56.1237C0 48.1597 1.65897 40.5831 4.64995 33.7205ZM56.1237 0C77.3683 0 95.8556 11.804 105.386 29.211C98.6304 36.2406 91.4047 40.3415 84.095 42.4351C74.3813 45.2172 63.8666 44.6364 53.1716 41.6778C38.5476 37.6323 24.2905 29.3295 12.7272 20.5318C23.0202 7.99645 38.6381 0 56.1237 0Z" fill="white"/>
</svg>