<svg width="32" height="32" viewBox="0 0 32 32" fill="none" xmlns="http://www.w3.org/2000/svg">
<path d="M28.7641 13.3996C28.9344 14.2399 29.0238 15.1096 29.0238 16.0002C29.0238 23.193 23.193 29.0238 16.0002 29.0238C12.5539 29.0238 9.42024 27.6852 7.0908 25.4995C7.78231 24.985 8.40537 24.4085 8.9638 23.7901C11.1462 21.3732 12.3572 18.3066 12.9295 15.6447C13.4034 15.8085 13.8814 15.958 14.3627 16.0911C17.2909 16.9011 20.4243 17.1317 23.4746 16.258C25.3416 15.7233 27.1217 14.7905 28.7641 13.3996ZM4.05559 10.8015C5.70475 12.0329 7.57097 13.2273 9.56759 14.2226C9.16333 16.5673 8.15556 19.3547 6.31239 21.3959C5.87041 21.8854 5.38181 22.3309 4.84133 22.7191C3.65765 20.7574 2.97656 18.4584 2.97656 16.0002C2.97656 14.1521 3.36153 12.394 4.05559 10.8015ZM16.0002 2.97656C20.93 2.97656 25.2201 5.7157 27.4315 9.75504C25.864 11.3863 24.1872 12.3379 22.491 12.8237C20.2369 13.4693 17.797 13.3345 15.3152 12.648C11.9216 11.7092 8.61323 9.78254 5.92994 7.74102C8.31846 4.83216 11.9426 2.97656 16.0002 2.97656Z" fill="#00D672"/>
</svg>
